<?xml version="1.0" encoding="UTF-8"?><svg id="Laag_2" xmlns="http://www.w3.org/2000/svg" viewBox="0 0 332.5 332.86"><defs><style>.cls-1{stroke:#fff;}.cls-1,.cls-2{stroke-miterlimit:10;}.cls-1,.cls-3{fill:#fff;}.cls-2{fill:none;stroke:#1d1d1b;stroke-width:2px;}.cls-4{fill:#1d1d1b;}.cls-4,.cls-3{stroke-width:0px;}</style></defs><path class="cls-1" d="M240.95,313.59c-2.43,1.24-4.9,2.42-7.41,3.54-2.33-5.05-4.98-10.44-8-16.1-10.01-18.8-32.16-55.95-72.73-91.95-30.01-26.63-87.74-68.28-98.64-57.68-11.28,10.95,27.05,78.17,79.41,124.55,26.27,23.27,53.37,38.9,76.92,49.5-14.16,3.94-29.08,6.05-44.5,6.05C74.6,331.5.5,257.4.5,166c0-17.77,2.8-34.89,7.99-50.93,25.39,8.04,56.58,20.65,89.51,40.82,5.6,3.43,25.06,15.53,45,32,46.77,38.62,77.85,86.08,97.95,125.7Z"/><path class="cls-3" d="M260.15,302.13c-5.87,4.06-12.02,7.77-18.42,11.06-26.75-58.23-74.27-136.85-157.73-201.3-18.92-14.62-37.73-26.99-55.87-37.47,2.37-3.56,4.88-7.03,7.5-10.39,46.29,20.52,123.28,64.09,180.37,149.86,20.65,31.01,34.6,61.4,44.15,88.24Z"/><path class="cls-1" d="M307.56,251.79c-9.68,15.93-21.97,30.1-36.28,41.91-4.23-62.87-25.14-97.57-45.04-118.07-24.9-25.65-49.51-30.38-115.64-73.28-27.18-17.63-49.83-34.22-67.12-47.6,10.73-11.82,23.16-22.09,36.9-30.41.91,33.67,12.08,52.4,20.49,62.56,9.74,11.75,18.43,15.16,70.98,45.79,26.58,15.49,47.78,28.27,52.1,30.92,24.14,14.81,54.26,40.42,83.61,88.18Z"/><path class="cls-1" d="M331.5,166c0,22.06-4.32,43.11-12.15,62.36-37.05-40.02-72.56-63.47-99.98-77.92-39.31-20.71-70.38-27.34-96.17-59.54-18.92-23.61-26.72-50.63-29.8-73.66C115.32,6.52,139.96.5,166,.5c55.59,0,104.79,27.41,134.79,69.46-21.35,26.17-50.38,51.73-83.61,50.5-58.63-2.16-101.77-86.59-109.51-81.08-4.27,3.03,5.59,30.94,25.91,51.83,41.16,42.29,103.13,33.08,115.37,30.93,28.14-4.95,49.94-17.64,65.29-29.81,11.05,22.19,17.26,47.2,17.26,73.67Z"/><path class="cls-4" d="M241.73,313.19c-.26.14-.51.27-.78.4-20.1-39.62-51.18-87.08-97.95-125.7-19.94-16.47-39.4-28.57-45-32-32.93-20.17-64.12-32.78-89.51-40.82,4.69-14.53,11.34-28.19,19.64-40.65,18.14,10.48,36.95,22.85,55.87,37.47,83.46,64.45,130.98,143.07,157.73,201.3Z"/><path class="cls-4" d="M271.28,293.7c-3.58,2.96-7.3,5.77-11.13,8.43-9.55-26.84-23.5-57.23-44.15-88.24C158.91,128.12,81.92,84.55,35.63,64.03c2.51-3.19,5.12-6.28,7.85-9.28,17.29,13.38,39.94,29.97,67.12,47.6,66.13,42.9,90.74,47.63,115.64,73.28,19.9,20.5,40.81,55.2,45.04,118.07Z"/><path class="cls-4" d="M319.35,228.36c-3.32,8.15-7.27,15.98-11.79,23.43-29.35-47.76-59.47-73.37-83.61-88.18-4.32-2.65-25.52-15.43-52.1-30.92-52.55-30.63-61.24-34.04-70.98-45.79-8.41-10.16-19.58-28.89-20.49-62.56,4.22-2.55,8.56-4.93,13.02-7.1,3.08,23.03,10.88,50.05,29.8,73.66,25.79,32.2,56.86,38.83,96.17,59.54,27.42,14.45,62.93,37.9,99.98,77.92Z"/><path class="cls-4" d="M233.54,317.13c-7.41,3.32-15.1,6.11-23.04,8.32-23.55-10.6-50.65-26.23-76.92-49.5-52.36-46.38-90.69-113.6-79.41-124.55,10.9-10.6,68.63,31.05,98.64,57.68,40.57,36,62.72,73.15,72.73,91.95,3.02,5.66,5.67,11.05,8,16.1Z"/><path class="cls-4" d="M314.24,92.33c-15.35,12.17-37.15,24.86-65.29,29.81-12.24,2.15-74.21,11.36-115.37-30.93-20.32-20.89-30.18-48.8-25.91-51.83,7.74-5.51,50.88,78.92,109.51,81.08,33.23,1.23,62.26-24.33,83.61-50.5,5.05,7.06,9.55,14.54,13.45,22.37Z"/><circle class="cls-2" cx="166.36" cy="166.72" r="165.14"/></svg>